RobotoSerifDisplay-RegularWidth1750.ufo
<glyph name="quotesingle" format="2">
  <advance width="274"/>
  <unicode hex="0027"/>
  <outline>
    <contour>
      <point x="187" y="710" type="line"/>
      <point x="187" y="640"/>
      <point x="154" y="590"/>
      <point x="154" y="485" type="curve"/>
      <point x="120" y="485" type="line"/>
      <point x="120" y="590"/>
      <point x="87" y="639"/>
      <point x="87" y="710" type="curve"/>
    </contour>
  </outline>
</glyph>
<glyph name="three" format="2">
  <advance width="695"/>
  <unicode hex="0033"/>
  <outline>
    <contour>
      <point x="335" y="-61" type="curve" smooth="yes"/>
      <point x="466" y="-61"/>
      <point x="544" y="1"/>
      <point x="544" y="111" type="curve" smooth="yes"/>
      <point x="544" y="208"/>
      <point x="475" y="270"/>
      <point x="313" y="270" type="curve" smooth="yes"/>
      <point x="222" y="270" type="line"/>
      <point x="222" y="297" type="line"/>
      <point x="298" y="297" type="line" smooth="yes"/>
      <point x="427" y="297"/>
      <point x="510" y="347"/>
      <point x="510" y="444" type="curve" smooth="yes"/>
      <point x="510" y="537"/>
      <point x="441" y="589"/>
      <point x="332" y="589" type="curve" smooth="yes"/>
      <point x="229" y="589"/>
      <point x="169" y="556"/>
      <point x="136" y="513" type="curve"/>
      <point x="139" y="538"/>
      <point x="160" y="565"/>
      <point x="181" y="569" type="curve"/>
      <point x="181" y="454" type="line"/>
      <point x="85" y="454" type="line"/>
      <point x="85" y="538" type="line"/>
      <point x="124" y="571"/>
      <point x="214" y="618"/>
      <point x="342" y="618" type="curve" smooth="yes"/>
      <point x="496" y="618"/>
      <point x="606" y="555"/>
      <point x="606" y="456" type="curve" smooth="yes"/>
      <point x="606" y="350"/>
      <point x="472" y="281"/>
      <point x="307" y="281" type="curve"/>
      <point x="329" y="290" type="line"/>
      <point x="562" y="290"/>
      <point x="643" y="211"/>
      <point x="643" y="111" type="curve" smooth="yes"/>
      <point x="643" y="-7"/>
      <point x="516" y="-90"/>
      <point x="339" y="-90" type="curve" smooth="yes"/>
      <point x="176" y="-90"/>
      <point x="70" y="-23"/>
      <point x="24" y="71" type="curve"/>
      <point x="54" y="92" type="line"/>
      <point x="91" y="10"/>
      <point x="181" y="-61"/>
    </contour>
  </outline>
</glyph>
<glyph name="five" format="2">
  <advance width="695"/>
  <unicode hex="0035"/>
  <outline>
    <contour>
      <point x="334" y="-90" type="curve"/>
      <point x="175" y="-90"/>
      <point x="86" y="-25"/>
      <point x="41" y="56" type="curve"/>
      <point x="70" y="76" type="line"/>
      <point x="108" y="-1"/>
      <point x="192" y="-61"/>
      <point x="326" y="-61" type="curve"/>
      <point x="463" y="-61"/>
      <point x="548" y="21"/>
      <point x="548" y="148" type="curve" smooth="yes"/>
      <point x="548" y="268"/>
      <point x="470" y="337"/>
      <point x="354" y="337" type="curve" smooth="yes"/>
      <point x="257" y="337"/>
      <point x="194" y="301"/>
      <point x="141" y="240" type="curve"/>
      <point x="109" y="240" type="line"/>
      <point x="109" y="609" type="line"/>
      <point x="593" y="609" type="line"/>
      <point x="577" y="536" type="line"/>
      <point x="130" y="536" type="line"/>
      <point x="149" y="589" type="line"/>
      <point x="149" y="273" type="line"/>
      <point x="143" y="254"/>
      <point x="136" y="257"/>
      <point x="131" y="265" type="curve"/>
      <point x="180" y="326"/>
      <point x="264" y="366"/>
      <point x="368" y="366" type="curve" smooth="yes"/>
      <point x="546" y="366"/>
      <point x="648" y="264"/>
      <point x="648" y="148" type="curve" smooth="yes"/>
      <point x="648" y="9"/>
      <point x="521" y="-90"/>
    </contour>
  </outline>
</glyph>
<glyph name="B" format="2">
  <advance width="788"/>
  <unicode hex="0042"/>
  <outline>
    <contour>
      <point x="391" y="710" type="curve" smooth="yes"/>
      <point x="39" y="710" type="line"/>
      <point x="39" y="683" type="line"/>
      <point x="49" y="683" type="line" smooth="yes"/>
      <point x="102" y="683"/>
      <point x="148" y="677"/>
      <point x="148" y="649" type="curve" smooth="yes"/>
      <point x="148" y="61" type="line" smooth="yes"/>
      <point x="148" y="33"/>
      <point x="103" y="27"/>
      <point x="49" y="27" type="curve" smooth="yes"/>
      <point x="39" y="27" type="line"/>
      <point x="39" y="0" type="line"/>
      <point x="410" y="0" type="line" smooth="yes"/>
      <point x="615" y="0"/>
      <point x="731" y="75"/>
      <point x="731" y="197" type="curve" smooth="yes"/>
      <point x="731" y="309"/>
      <point x="611" y="381"/>
      <point x="382" y="381" type="curve"/>
      <point x="457" y="364" type="line"/>
      <point x="457" y="384" type="line"/>
      <point x="363" y="366" type="line"/>
      <point x="576" y="366"/>
      <point x="685" y="431"/>
      <point x="685" y="532" type="curve" smooth="yes"/>
      <point x="685" y="641"/>
      <point x="580" y="710"/>
    </contour>
    <contour>
      <point x="245" y="30" type="line"/>
      <point x="245" y="680" type="line"/>
      <point x="390" y="680" type="line" smooth="yes"/>
      <point x="526" y="680"/>
      <point x="586" y="625"/>
      <point x="586" y="531" type="curve" smooth="yes"/>
      <point x="586" y="446"/>
      <point x="527" y="386"/>
      <point x="383" y="386" type="curve" smooth="yes"/>
      <point x="211" y="386" type="line"/>
      <point x="211" y="357" type="line"/>
      <point x="394" y="357" type="line" smooth="yes"/>
      <point x="560" y="357"/>
      <point x="629" y="289"/>
      <point x="629" y="198" type="curve" smooth="yes"/>
      <point x="629" y="90"/>
      <point x="560" y="30"/>
      <point x="409" y="30" type="curve" smooth="yes"/>
    </contour>
  </outline>
</glyph>
<glyph name="S" format="2">
  <advance width="739"/>
  <unicode hex="0053"/>
  <outline>
    <contour>
      <point x="396" y="22" type="curve" smooth="yes"/>
      <point x="241" y="22"/>
      <point x="149" y="85"/>
      <point x="103" y="211" type="curve"/>
      <point x="64" y="211" type="line"/>
      <point x="64" y="0" type="line"/>
      <point x="107" y="0" type="line"/>
      <point x="119" y="122" type="line"/>
      <point x="112" y="133"/>
      <point x="99" y="148"/>
      <point x="92" y="155" type="curve"/>
      <point x="129" y="49"/>
      <point x="241" y="-10"/>
      <point x="399" y="-10" type="curve" smooth="yes"/>
      <point x="553" y="-10"/>
      <point x="686" y="64"/>
      <point x="686" y="193" type="curve" smooth="yes"/>
      <point x="686" y="331"/>
      <point x="543" y="371"/>
      <point x="406" y="402" type="curve" smooth="yes"/>
      <point x="276" y="432"/>
      <point x="165" y="457"/>
      <point x="165" y="559" type="curve" smooth="yes"/>
      <point x="165" y="637"/>
      <point x="232" y="688"/>
      <point x="353" y="688" type="curve" smooth="yes"/>
      <point x="473" y="688"/>
      <point x="560" y="626"/>
      <point x="585" y="533" type="curve"/>
      <point x="623" y="533" type="line"/>
      <point x="623" y="710" type="line"/>
      <point x="583" y="710" type="line"/>
      <point x="570" y="609" type="line"/>
      <point x="579" y="604"/>
      <point x="601" y="580"/>
      <point x="606" y="579" type="curve"/>
      <point x="570" y="657"/>
      <point x="490" y="720"/>
      <point x="347" y="720" type="curve" smooth="yes"/>
      <point x="198" y="720"/>
      <point x="88" y="649"/>
      <point x="88" y="540" type="curve" smooth="yes"/>
      <point x="88" y="407"/>
      <point x="221" y="366"/>
      <point x="353" y="334" type="curve" smooth="yes"/>
      <point x="484" y="303"/>
      <point x="608" y="278"/>
      <point x="608" y="172" type="curve" smooth="yes"/>
      <point x="608" y="66"/>
      <point x="519" y="22"/>
    </contour>
  </outline>
</glyph>
<glyph name="U" format="2">
  <advance width="931"/>
  <unicode hex="0055"/>
  <outline>
    <contour>
      <point x="240" y="243" type="curve" smooth="yes"/>
      <point x="240" y="673" type="line" smooth="yes"/>
      <point x="240" y="680"/>
      <point x="295" y="683"/>
      <point x="338" y="683" type="curve" smooth="yes"/>
      <point x="349" y="683" type="line"/>
      <point x="349" y="710" type="line"/>
      <point x="34" y="710" type="line"/>
      <point x="34" y="683" type="line"/>
      <point x="44" y="683" type="line" smooth="yes"/>
      <point x="97" y="683"/>
      <point x="143" y="677"/>
      <point x="143" y="649" type="curve" smooth="yes"/>
      <point x="143" y="242" type="line" smooth="yes"/>
      <point x="143" y="69"/>
      <point x="278" y="-10"/>
      <point x="475" y="-10" type="curve" smooth="yes"/>
      <point x="654" y="-10"/>
      <point x="788" y="67"/>
      <point x="788" y="247" type="curve" smooth="yes"/>
      <point x="788" y="627" type="line" smooth="yes"/>
      <point x="788" y="669"/>
      <point x="833" y="683"/>
      <point x="883" y="683" type="curve" smooth="yes"/>
      <point x="897" y="683" type="line"/>
      <point x="897" y="710" type="line"/>
      <point x="623" y="710" type="line"/>
      <point x="623" y="683" type="line"/>
      <point x="646" y="683" type="line" smooth="yes"/>
      <point x="704" y="683"/>
      <point x="744" y="676"/>
      <point x="744" y="660" type="curve" smooth="yes"/>
      <point x="744" y="247" type="line" smooth="yes"/>
      <point x="744" y="97"/>
      <point x="646" y="34"/>
      <point x="495" y="34" type="curve" smooth="yes"/>
      <point x="342" y="34"/>
      <point x="240" y="91"/>
    </contour>
  </outline>
</glyph>
<glyph name="Y" format="2">
  <advance width="773"/>
  <unicode hex="0059"/>
  <outline>
    <contour>
      <point x="345" y="341" type="line"/>
      <point x="345" y="61" type="line" smooth="yes"/>
      <point x="345" y="33"/>
      <point x="299" y="27"/>
      <point x="244" y="27" type="curve" smooth="yes"/>
      <point x="224" y="27" type="line"/>
      <point x="224" y="0" type="line"/>
      <point x="563" y="0" type="line"/>
      <point x="563" y="27" type="line"/>
      <point x="544" y="27" type="line" smooth="yes"/>
      <point x="489" y="27"/>
      <point x="443" y="33"/>
      <point x="443" y="61" type="curve" smooth="yes"/>
      <point x="443" y="341" type="line"/>
      <point x="432" y="309" type="line"/>
      <point x="659" y="624" type="line" smooth="yes"/>
      <point x="687" y="667"/>
      <point x="716" y="683"/>
      <point x="752" y="683" type="curve" smooth="yes"/>
      <point x="760" y="683" type="line"/>
      <point x="760" y="710" type="line"/>
      <point x="523" y="710" type="line"/>
      <point x="523" y="683" type="line"/>
      <point x="553" y="683" type="line" smooth="yes"/>
      <point x="611" y="683"/>
      <point x="636" y="671"/>
      <point x="637" y="658" type="curve"/>
      <point x="407" y="339" type="line"/>
      <point x="430" y="342" type="line"/>
      <point x="183" y="670" type="line"/>
      <point x="183" y="680"/>
      <point x="236" y="683"/>
      <point x="277" y="683" type="curve" smooth="yes"/>
      <point x="298" y="683" type="line"/>
      <point x="298" y="710" type="line"/>
      <point x="13" y="710" type="line"/>
      <point x="13" y="683" type="line"/>
      <point x="19" y="683" type="line" smooth="yes"/>
      <point x="52" y="683"/>
      <point x="75" y="681"/>
      <point x="94" y="655" type="curve" smooth="yes"/>
      <point x="356" y="308" type="line"/>
    </contour>
  </outline>
</glyph>
<glyph name="a" format="2">
  <advance width="644"/>
  <unicode hex="0061"/>
  <outline>
    <contour>
      <point x="460" y="302" type="line"/>
      <point x="192" y="276"/>
      <point x="50" y="230"/>
      <point x="50" y="123" type="curve" smooth="yes"/>
      <point x="50" y="41"/>
      <point x="135" y="-10"/>
      <point x="245" y="-10" type="curve" smooth="yes"/>
      <point x="343" y="-10"/>
      <point x="416" y="32"/>
      <point x="460" y="99" type="curve"/>
      <point x="460" y="146" type="line"/>
      <point x="419" y="72"/>
      <point x="359" y="21"/>
      <point x="263" y="21" type="curve" smooth="yes"/>
      <point x="188" y="21"/>
      <point x="143" y="55"/>
      <point x="143" y="123" type="curve" smooth="yes"/>
      <point x="143" y="214"/>
      <point x="243" y="257"/>
      <point x="460" y="274" type="curve"/>
    </contour>
    <contour>
      <point x="452" y="0" type="line"/>
      <point x="636" y="0" type="line"/>
      <point x="636" y="27" type="line"/>
      <point x="634" y="27" type="line"/>
      <point x="576" y="27"/>
      <point x="538" y="33"/>
      <point x="538" y="61" type="curve" smooth="yes"/>
      <point x="538" y="371" type="line" smooth="yes"/>
      <point x="538" y="483"/>
      <point x="441" y="528"/>
      <point x="309" y="528" type="curve" smooth="yes"/>
      <point x="202" y="528"/>
      <point x="124" y="493"/>
      <point x="89" y="471" type="curve"/>
      <point x="89" y="385" type="line"/>
      <point x="177" y="385" type="line"/>
      <point x="177" y="488" type="line"/>
      <point x="152" y="490"/>
      <point x="123" y="466"/>
      <point x="120" y="426" type="curve"/>
      <point x="155" y="468"/>
      <point x="209" y="499"/>
      <point x="302" y="499" type="curve" smooth="yes"/>
      <point x="396" y="499"/>
      <point x="445" y="464"/>
      <point x="445" y="368" type="curve" smooth="yes"/>
      <point x="445" y="97" type="line"/>
      <point x="452" y="102" type="line"/>
    </contour>
  </outline>
</glyph>
<glyph name="e" format="2">
  <advance width="657"/>
  <unicode hex="0065"/>
  <outline>
    <contour>
      <point x="364" y="-10" type="curve" smooth="yes"/>
      <point x="479" y="-10"/>
      <point x="568" y="32"/>
      <point x="615" y="104" type="curve"/>
      <point x="585" y="125" type="line"/>
      <point x="545" y="64"/>
      <point x="480" y="19"/>
      <point x="370" y="19" type="curve" smooth="yes"/>
      <point x="235" y="19"/>
      <point x="136" y="103"/>
      <point x="136" y="254" type="curve" smooth="yes"/>
      <point x="136" y="406"/>
      <point x="221" y="499"/>
      <point x="346" y="499" type="curve" smooth="yes"/>
      <point x="463" y="499"/>
      <point x="521" y="425"/>
      <point x="524" y="290" type="curve"/>
      <point x="555" y="300" type="line"/>
      <point x="113" y="300" type="line"/>
      <point x="113" y="273" type="line"/>
      <point x="618" y="273" type="line"/>
      <point x="617" y="436"/>
      <point x="518" y="528"/>
      <point x="346" y="528" type="curve" smooth="yes"/>
      <point x="173" y="528"/>
      <point x="40" y="418"/>
      <point x="40" y="256" type="curve" smooth="yes"/>
      <point x="40" y="93"/>
      <point x="186" y="-10"/>
    </contour>
  </outline>
</glyph>
<glyph name="g" format="2">
  <advance width="710"/>
  <unicode hex="0067"/>
  <outline>
    <contour>
      <point x="338" y="190" type="curve" smooth="yes"/>
      <point x="248" y="190"/>
      <point x="185" y="245"/>
      <point x="185" y="343" type="curve" smooth="yes"/>
      <point x="185" y="440"/>
      <point x="249" y="499"/>
      <point x="338" y="499" type="curve" smooth="yes"/>
      <point x="428" y="499"/>
      <point x="493" y="440"/>
      <point x="493" y="343" type="curve" smooth="yes"/>
      <point x="493" y="245"/>
      <point x="428" y="190"/>
    </contour>
    <contour>
      <point x="338" y="161" type="curve" smooth="yes"/>
      <point x="479" y="161"/>
      <point x="586" y="233"/>
      <point x="586" y="343" type="curve" smooth="yes"/>
      <point x="586" y="452"/>
      <point x="479" y="528"/>
      <point x="338" y="528" type="curve" smooth="yes"/>
      <point x="198" y="528"/>
      <point x="91" y="452"/>
      <point x="91" y="343" type="curve" smooth="yes"/>
      <point x="91" y="233"/>
      <point x="197" y="161"/>
    </contour>
    <contour>
      <point x="519" y="424" type="line"/>
      <point x="552" y="466"/>
      <point x="598" y="469"/>
      <point x="696" y="463" type="curve"/>
      <point x="696" y="530" type="line"/>
      <point x="611" y="537"/>
      <point x="550" y="503"/>
      <point x="504" y="437" type="curve"/>
    </contour>
    <contour>
      <point x="357" y="-248" type="line" smooth="yes"/>
      <point x="529" y="-248"/>
      <point x="676" y="-180"/>
      <point x="676" y="-67" type="curve" smooth="yes"/>
      <point x="676" y="17"/>
      <point x="604" y="55"/>
      <point x="466" y="55" type="curve" smooth="yes"/>
      <point x="235" y="55" type="line" smooth="yes"/>
      <point x="169" y="55"/>
      <point x="132" y="68"/>
      <point x="132" y="100" type="curve" smooth="yes"/>
      <point x="132" y="137"/>
      <point x="169" y="161"/>
      <point x="226" y="184" type="curve"/>
      <point x="200" y="199" type="line"/>
      <point x="115" y="165"/>
      <point x="69" y="127"/>
      <point x="69" y="77" type="curve" smooth="yes"/>
      <point x="69" y="42"/>
      <point x="94" y="9"/>
      <point x="159" y="-12" type="curve"/>
      <point x="155" y="-19" type="line"/>
      <point x="461" y="-19" type="line" smooth="yes"/>
      <point x="567" y="-19"/>
      <point x="601" y="-43"/>
      <point x="601" y="-88" type="curve" smooth="yes"/>
      <point x="601" y="-164"/>
      <point x="501" y="-218"/>
      <point x="357" y="-218" type="curve" smooth="yes"/>
      <point x="319" y="-218" type="line" smooth="yes"/>
      <point x="164" y="-218"/>
      <point x="94" y="-174"/>
      <point x="94" y="-114" type="curve" smooth="yes"/>
      <point x="94" y="-70"/>
      <point x="121" y="-32"/>
      <point x="198" y="-5" type="curve"/>
      <point x="181" y="12" type="line"/>
      <point x="78" y="-25"/>
      <point x="23" y="-63"/>
      <point x="23" y="-115" type="curve" smooth="yes"/>
      <point x="23" y="-206"/>
      <point x="156" y="-248"/>
      <point x="318" y="-248" type="curve" smooth="yes"/>
    </contour>
  </outline>
</glyph>
<glyph name="v" format="2">
  <advance width="667"/>
  <unicode hex="0076"/>
  <outline>
    <contour>
      <point x="554" y="471" type="curve"/>
      <point x="352" y="48" type="line"/>
      <point x="372" y="48" type="line"/>
      <point x="166" y="481" type="line"/>
      <point x="166" y="488"/>
      <point x="224" y="491"/>
      <point x="268" y="491" type="curve" smooth="yes"/>
      <point x="270" y="491" type="line"/>
      <point x="270" y="518" type="line"/>
      <point x="5" y="518" type="line"/>
      <point x="5" y="491" type="line"/>
      <point x="9" y="491" type="line" smooth="yes"/>
      <point x="44" y="491"/>
      <point x="69" y="486"/>
      <point x="81" y="460" type="curve" smooth="yes"/>
      <point x="303" y="0" type="line"/>
      <point x="366" y="0" type="line"/>
      <point x="582" y="449" type="line" smooth="yes"/>
      <point x="595" y="479"/>
      <point x="621" y="491"/>
      <point x="660" y="491" type="curve" smooth="yes"/>
      <point x="662" y="491" type="line"/>
      <point x="662" y="518" type="line"/>
      <point x="458" y="518" type="line"/>
      <point x="458" y="491" type="line"/>
      <point x="461" y="491" type="line" smooth="yes"/>
      <point x="503" y="491"/>
      <point x="554" y="484"/>
    </contour>
  </outline>
</glyph>
<glyph name="copyright" format="2">
  <advance width="1049"/>
  <unicode hex="00A9"/>
  <outline>
    <contour>
      <point x="528" y="532" type="curve" smooth="yes"/>
      <point x="623" y="532"/>
      <point x="681" y="483"/>
      <point x="704" y="418" type="curve"/>
      <point x="741" y="418" type="line"/>
      <point x="741" y="552" type="line"/>
      <point x="709" y="552" type="line"/>
      <point x="694" y="463" type="line"/>
      <point x="694" y="463"/>
      <point x="714" y="454"/>
      <point x="716" y="454" type="curve"/>
      <point x="698" y="522"/>
      <point x="613" y="563"/>
      <point x="522" y="563" type="curve" smooth="yes"/>
      <point x="381" y="563"/>
      <point x="269" y="476"/>
      <point x="269" y="354" type="curve" smooth="yes"/>
      <point x="269" y="231"/>
      <point x="380" y="147"/>
      <point x="529" y="147" type="curve" smooth="yes"/>
      <point x="648" y="147"/>
      <point x="733" y="212"/>
      <point x="756" y="290" type="curve"/>
      <point x="721" y="301" type="line"/>
      <point x="698" y="232"/>
      <point x="636" y="178"/>
      <point x="534" y="178" type="curve" smooth="yes"/>
      <point x="424" y="178"/>
      <point x="354" y="245"/>
      <point x="354" y="354" type="curve" smooth="yes"/>
      <point x="354" y="471"/>
      <point x="428" y="532"/>
    </contour>
    <contour>
      <point x="94" y="355" type="curve" smooth="yes"/>
      <point x="94" y="552"/>
      <point x="275" y="706"/>
      <point x="524" y="706" type="curve" smooth="yes"/>
      <point x="773" y="706"/>
      <point x="955" y="552"/>
      <point x="955" y="355" type="curve" smooth="yes"/>
      <point x="955" y="158"/>
      <point x="773" y="4"/>
      <point x="524" y="4" type="curve" smooth="yes"/>
      <point x="275" y="4"/>
      <point x="94" y="158"/>
    </contour>
    <contour>
      <point x="44" y="355" type="curve" smooth="yes"/>
      <point x="44" y="138"/>
      <point x="253" y="-28"/>
      <point x="524" y="-28" type="curve" smooth="yes"/>
      <point x="797" y="-28"/>
      <point x="1005" y="138"/>
      <point x="1005" y="355" type="curve" smooth="yes"/>
      <point x="1005" y="572"/>
      <point x="797" y="738"/>
      <point x="524" y="738" type="curve" smooth="yes"/>
      <point x="253" y="738"/>
      <point x="44" y="572"/>
    </contour>
  </outline>
</glyph>
<glyph name="cedilla" format="2">
  <advance width="746"/>
  <unicode hex="00B8"/>
  <anchor x="363" y="34.0" name="_bottom"/>
  <outline>
    <contour>
      <point x="379" y="4" type="line"/>
      <point x="310" y="4" type="line"/>
      <point x="272" y="-94" type="line"/>
      <point x="300" y="-94" type="line" smooth="yes"/>
      <point x="373" y="-94"/>
      <point x="398" y="-117"/>
      <point x="398" y="-148" type="curve" smooth="yes"/>
      <point x="398" y="-184"/>
      <point x="368" y="-206"/>
      <point x="322" y="-206" type="curve" smooth="yes"/>
      <point x="272" y="-206"/>
      <point x="245" y="-191"/>
      <point x="217" y="-161" type="curve"/>
      <point x="191" y="-182" type="line"/>
      <point x="220" y="-215"/>
      <point x="264" y="-236"/>
      <point x="333" y="-236" type="curve" smooth="yes"/>
      <point x="411" y="-236"/>
      <point x="479" y="-207"/>
      <point x="479" y="-145" type="curve" smooth="yes"/>
      <point x="479" y="-92"/>
      <point x="410" y="-60"/>
      <point x="316" y="-66" type="curve"/>
      <point x="313" y="-70"/>
      <point x="320" y="-78"/>
      <point x="321" y="-78" type="curve"/>
    </contour>
  </outline>
</glyph>
<glyph name="Lslash" format="2">
  <advance width="719"/>
  <unicode hex="0141"/>
  <outline>
    <contour>
      <point x="43" y="212" type="line"/>
      <point x="391" y="453" type="line"/>
      <point x="523" y="535" type="line"/>
      <point x="176" y="294" type="line"/>
    </contour>
    <component base="L" xOffset="58"/>
  </outline>
</glyph>
<glyph name="ring" format="2">
  <advance width="620"/>
  <unicode hex="02DA"/>
  <anchor x="310.0" y="526.0" name="_top"/>
  <outline>
    <contour>
      <point x="236" y="679" type="curve" smooth="yes"/>
      <point x="236" y="731"/>
      <point x="268" y="752"/>
      <point x="310" y="752" type="curve" smooth="yes"/>
      <point x="351" y="752"/>
      <point x="384" y="731"/>
      <point x="384" y="679" type="curve" smooth="yes"/>
      <point x="384" y="628"/>
      <point x="351" y="607"/>
      <point x="310" y="607" type="curve" smooth="yes"/>
      <point x="268" y="607"/>
      <point x="236" y="628"/>
    </contour>
    <contour>
      <point x="448" y="679" type="curve" smooth="yes"/>
      <point x="448" y="741"/>
      <point x="387" y="776"/>
      <point x="310" y="776" type="curve" smooth="yes"/>
      <point x="233" y="776"/>
      <point x="171" y="741"/>
      <point x="171" y="679" type="curve" smooth="yes"/>
      <point x="171" y="618"/>
      <point x="233" y="583"/>
      <point x="310" y="583" type="curve" smooth="yes"/>
      <point x="386" y="583"/>
      <point x="448" y="618"/>
    </contour>
  </outline>
</glyph>
<glyph name="Euro" format="2">
  <advance width="695"/>
  <unicode hex="20AC"/>
  <outline>
    <contour>
      <point x="20" y="439" type="line"/>
      <point x="20" y="407" type="line"/>
      <point x="496" y="407" type="line"/>
      <point x="496" y="439" type="line"/>
    </contour>
    <contour>
      <point x="20" y="284" type="line"/>
      <point x="20" y="253" type="line"/>
      <point x="437" y="253" type="line"/>
      <point x="437" y="284" type="line"/>
    </contour>
    <contour>
      <point x="425" y="-10" type="curve" smooth="yes"/>
      <point x="567" y="-10"/>
      <point x="647" y="66"/>
      <point x="682" y="156" type="curve"/>
      <point x="645" y="171" type="line"/>
      <point x="618" y="94"/>
      <point x="553" y="22"/>
      <point x="438" y="22" type="curve" smooth="yes"/>
      <point x="305" y="22"/>
      <point x="214" y="115"/>
      <point x="214" y="354" type="curve" smooth="yes"/>
      <point x="214" y="601"/>
      <point x="314" y="690"/>
      <point x="459" y="690" type="curve" smooth="yes"/>
      <point x="535" y="690"/>
      <point x="590" y="663"/>
      <point x="619" y="631" type="curve"/>
      <point x="634" y="646"/>
      <point x="603" y="676"/>
      <point x="567" y="683" type="curve"/>
      <point x="567" y="577" type="line"/>
      <point x="667" y="577" type="line"/>
      <point x="667" y="669" type="line"/>
      <point x="637" y="690"/>
      <point x="565" y="720"/>
      <point x="459" y="720" type="curve" smooth="yes"/>
      <point x="263" y="720"/>
      <point x="113" y="610"/>
      <point x="113" y="354" type="curve" smooth="yes"/>
      <point x="113" y="102"/>
      <point x="245" y="-10"/>
    </contour>
  </outline>
</glyph>
<glyph name="notequal" format="2">
  <advance width="695"/>
  <unicode hex="2260"/>
  <outline>
    <contour>
      <point x="541" y="566" type="line"/>
      <point x="93" y="87" type="line"/>
      <point x="136" y="87" type="line"/>
      <point x="585" y="566" type="line"/>
    </contour>
    <component base="equal" xOffset="52" yOffset="1"/>
  </outline>
</glyph>
<glyph name="circumflex_acute" format="2">
  <advance width="632"/>
  <anchor x="289" y="558.0" name="_top"/>
  <outline>
    <contour>
      <point x="515" y="830" type="curve" smooth="yes"/>
      <point x="458" y="710" type="line"/>
      <point x="458" y="697" type="line"/>
      <point x="481" y="697" type="line"/>
      <point x="588" y="788" type="line" smooth="yes"/>
      <point x="610" y="807"/>
      <point x="625" y="827"/>
      <point x="625" y="845" type="curve" smooth="yes"/>
      <point x="625" y="865"/>
      <point x="607" y="881"/>
      <point x="578" y="881" type="curve" smooth="yes"/>
      <point x="549" y="881"/>
      <point x="531" y="864"/>
    </contour>
    <component base="circumflex" xOffset="64"/>
  </outline>
</glyph>
<glyph name="circumflex_grave.uc" format="2">
  <advance width="632"/>
  <anchor x="303" y="696.0" name="_top"/>
  <outline>
    <contour>
      <point x="517" y="948" type="curve" smooth="yes"/>
      <point x="509" y="955"/>
      <point x="554" y="887"/>
      <point x="548" y="887" type="curve" smooth="yes"/>
      <point x="542" y="887"/>
      <point x="539" y="875"/>
      <point x="539" y="872" type="curve" smooth="yes"/>
      <point x="539" y="869"/>
      <point x="528" y="867"/>
      <point x="536" y="862" type="curve" smooth="yes"/>
      <point x="489" y="881" type="line"/>
      <point x="458" y="895"/>
      <point x="442" y="913"/>
      <point x="442" y="934" type="curve"/>
      <point x="442" y="950"/>
      <point x="456" y="968"/>
      <point x="479" y="968" type="curve"/>
      <point x="502" y="968"/>
      <point x="501" y="971"/>
    </contour>
    <component base="circumflex.uc" xOffset="70"/>
  </outline>
</glyph>
<glyph name="colonsign" format="2">
  <advance width="695"/>
  <outline>
    <contour>
      <point x="401" y="700" type="curve" smooth="yes"/>
      <point x="174" y="700"/>
      <point x="22" y="560"/>
      <point x="22" y="355" type="curve" smooth="yes"/>
      <point x="22" y="150"/>
      <point x="173" y="10"/>
      <point x="390" y="10" type="curve" smooth="yes"/>
      <point x="554" y="10"/>
      <point x="652" y="104"/>
      <point x="687" y="237" type="curve"/>
      <point x="651" y="252" type="line"/>
      <point x="621" y="131"/>
      <point x="537" y="40"/>
      <point x="395" y="40" type="curve" smooth="yes"/>
      <point x="224" y="40"/>
      <point x="117" y="159"/>
      <point x="117" y="355" type="curve" smooth="yes"/>
      <point x="117" y="549"/>
      <point x="223" y="670"/>
      <point x="401" y="670" type="curve" smooth="yes"/>
      <point x="522" y="670"/>
      <point x="609" y="624"/>
      <point x="638" y="583" type="curve"/>
      <point x="649" y="596"/>
      <point x="620" y="643"/>
      <point x="585" y="645" type="curve"/>
      <point x="585" y="527" type="line"/>
      <point x="682" y="527" type="line"/>
      <point x="682" y="627" type="line"/>
      <point x="644" y="652"/>
      <point x="550" y="700"/>
    </contour>
    <contour>
      <point x="310" y="790" type="line"/>
      <point x="154" y="-120" type="line"/>
      <point x="203" y="-120" type="line"/>
      <point x="359" y="790" type="line"/>
    </contour>
    <contour>
      <point x="483" y="790" type="line"/>
      <point x="327" y="-120" type="line"/>
      <point x="376" y="-120" type="line"/>
      <point x="532" y="790" type="line"/>
    </contour>
  </outline>
</glyph>
<glyph name="hungarumlaut.uc" format="2">
  <advance width="619"/>
  <anchor x="319" y="694.0" name="_top"/>
  <outline>
    <contour>
      <point x="230" y="854" type="curve" smooth="yes"/>
      <point x="200" y="772" type="line"/>
      <point x="200" y="758" type="line"/>
      <point x="223" y="758" type="line"/>
      <point x="293" y="810" type="line" smooth="yes"/>
      <point x="322" y="832"/>
      <point x="342" y="851"/>
      <point x="342" y="874" type="curve" smooth="yes"/>
      <point x="342" y="897"/>
      <point x="320" y="912"/>
      <point x="293" y="912" type="curve" smooth="yes"/>
      <point x="264" y="912"/>
      <point x="245" y="897"/>
    </contour>
    <contour>
      <point x="416" y="854" type="curve" smooth="yes"/>
      <point x="386" y="772" type="line"/>
      <point x="386" y="758" type="line"/>
      <point x="410" y="758" type="line"/>
      <point x="480" y="810" type="line" smooth="yes"/>
      <point x="510" y="832"/>
      <point x="529" y="851"/>
      <point x="529" y="874" type="curve" smooth="yes"/>
      <point x="529" y="897"/>
      <point x="507" y="912"/>
      <point x="480" y="912" type="curve" smooth="yes"/>
      <point x="450" y="912"/>
      <point x="431" y="897"/>
    </contour>
  </outline>
</glyph>
<glyph name="seven.den" format="2">
  <advance width="397"/>
  <outline>
    <contour>
      <point x="176" y="291" type="line" smooth="yes"/>
      <point x="118" y="291"/>
      <point x="95" y="287"/>
      <point x="91" y="265" type="curve" smooth="yes"/>
      <point x="82" y="216" type="line"/>
      <point x="50" y="216" type="line"/>
      <point x="50" y="341" type="line"/>
      <point x="372" y="341" type="line"/>
      <point x="372" y="301" type="line"/>
      <point x="276" y="214"/>
      <point x="232" y="146"/>
      <point x="222" y="0" type="curve"/>
      <point x="139" y="0" type="line"/>
      <point x="157" y="126"/>
      <point x="286" y="267"/>
      <point x="347" y="304" type="curve"/>
      <point x="347" y="291" type="line"/>
    </contour>
  </outline>
</glyph>
<glyph name="six.den" format="2">
  <advance width="398"/>
  <outline>
    <contour>
      <point x="320" y="334" type="line"/>
      <point x="183" y="319"/>
      <point x="109" y="259"/>
      <point x="109" y="141" type="curve" smooth="yes"/>
      <point x="109" y="52"/>
      <point x="147" y="20"/>
      <point x="199" y="20" type="curve" smooth="yes"/>
      <point x="254" y="20"/>
      <point x="286" y="57"/>
      <point x="286" y="115" type="curve" smooth="yes"/>
      <point x="286" y="167"/>
      <point x="264" y="201"/>
      <point x="210" y="201" type="curve" smooth="yes"/>
      <point x="158" y="201"/>
      <point x="116" y="171"/>
      <point x="93" y="128" type="curve"/>
      <point x="85" y="149" type="line"/>
      <point x="103" y="187"/>
      <point x="155" y="227"/>
      <point x="226" y="227" type="curve" smooth="yes"/>
      <point x="311" y="227"/>
      <point x="370" y="186"/>
      <point x="370" y="117" type="curve" smooth="yes"/>
      <point x="370" y="45"/>
      <point x="300" y="-6"/>
      <point x="203" y="-6" type="curve" smooth="yes"/>
      <point x="101" y="-6"/>
      <point x="28" y="43"/>
      <point x="28" y="141" type="curve" smooth="yes"/>
      <point x="28" y="249"/>
      <point x="132" y="342"/>
      <point x="315" y="358" type="curve"/>
    </contour>
  </outline>
</glyph>
